<svg xmlns="http://www.w3.org/2000/svg" xmlns:xlink="http://www.w3.org/1999/xlink" version="1.1" class="marks" width="712" height="466" viewBox="0 0 712 466"><rect width="712" height="466" fill="white"/><g fill="none" stroke-miterlimit="10" transform="translate(41,27)"><g class="mark-group role-frame root" role="graphics-object" aria-roledescription="group mark container"><g transform="translate(0,0)"><path class="background" aria-hidden="true" d="M0.5,0.5h600v400h-600Z" stroke="#ddd"/><g><g class="mark-group role-axis" aria-hidden="true"><g transform="translate(0.5,0.5)"><path class="background" aria-hidden="true" d="M0,0h0v0h0Z" pointer-events="none"/><g><g class="mark-rule role-axis-grid" pointer-events="none"><line transform="translate(0,400)" x2="600" y2="0" stroke="#ddd" stroke-width="1" opacity="1"/><line transform="translate(0,360)" x2="600" y2="0" stroke="#ddd" stroke-width="1" opacity="1"/><line transform="translate(0,320)" x2="600" y2="0" stroke="#ddd" stroke-width="1" opacity="1"/><line transform="translate(0,280)" x2="600" y2="0" stroke="#ddd" stroke-width="1" opacity="1"/><line transform="translate(0,240)" x2="600" y2="0" stroke="#ddd" stroke-width="1" opacity="1"/><line transform="translate(0,200)" x2="600" y2="0" stroke="#ddd" stroke-width="1" opacity="1"/><line transform="translate(0,160)" x2="600" y2="0" stroke="#ddd" stroke-width="1" opacity="1"/><line transform="translate(0,120)" x2="600" y2="0" stroke="#ddd" stroke-width="1" opacity="1"/><line transform="translate(0,80)" x2="600" y2="0" stroke="#ddd" stroke-width="1" opacity="1"/><line transform="translate(0,40)" x2="600" y2="0" stroke="#ddd" stroke-width="1" opacity="1"/><line transform="translate(0,0)" x2="600" y2="0" stroke="#ddd" stroke-width="1" opacity="1"/></g></g><path class="foreground" aria-hidden="true" d="" pointer-events="none" display="none"/></g></g><g class="mark-group role-axis" role="graphics-symbol" aria-roledescription="axis" aria-label="X-axis titled 'Month' for a discrete scale with 12 values: 1, 2, 3, 4, 5, ending with 12"><g transform="translate(0.5,400.5)"><path class="background" aria-hidden="true" d="M0,0h0v0h0Z" pointer-events="none"/><g><g class="mark-rule role-axis-tick" pointer-events="none"><line transform="translate(25,0)" x2="0" y2="5" stroke="#888" stroke-width="1" opacity="1"/><line transform="translate(75,0)" x2="0" y2="5" stroke="#888" stroke-width="1" opacity="1"/><line transform="translate(125,0)" x2="0" y2="5" stroke="#888" stroke-width="1" opacity="1"/><line transform="translate(175,0)" x2="0" y2="5" stroke="#888" stroke-width="1" opacity="1"/><line transform="translate(225,0)" x2="0" y2="5" stroke="#888" stroke-width="1" opacity="1"/><line transform="translate(275,0)" x2="0" y2="5" stroke="#888" stroke-width="1" opacity="1"/><line transform="translate(325,0)" x2="0" y2="5" stroke="#888" stroke-width="1" opacity="1"/><line transform="translate(375,0)" x2="0" y2="5" stroke="#888" stroke-width="1" opacity="1"/><line transform="translate(425,0)" x2="0" y2="5" stroke="#888" stroke-width="1" opacity="1"/><line transform="translate(475,0)" x2="0" y2="5" stroke="#888" stroke-width="1" opacity="1"/><line transform="translate(525,0)" x2="0" y2="5" stroke="#888" stroke-width="1" opacity="1"/><line transform="translate(575,0)" x2="0" y2="5" stroke="#888" stroke-width="1" opacity="1"/></g><g class="mark-text role-axis-label" pointer-events="none"><text text-anchor="end" transform="translate(24.5,7) rotate(270) translate(0,3)" font-family="sans-serif" font-size="10px" fill="#000" opacity="1">1</text><text text-anchor="end" transform="translate(74.5,7) rotate(270) translate(0,3)" font-family="sans-serif" font-size="10px" fill="#000" opacity="1">2</text><text text-anchor="end" transform="translate(124.5,7) rotate(270) translate(0,3)" font-family="sans-serif" font-size="10px" fill="#000" opacity="1">3</text><text text-anchor="end" transform="translate(174.5,7) rotate(270) translate(0,3)" font-family="sans-serif" font-size="10px" fill="#000" opacity="1">4</text><text text-anchor="end" transform="translate(224.5,7) rotate(270) translate(0,3)" font-family="sans-serif" font-size="10px" fill="#000" opacity="1">5</text><text text-anchor="end" transform="translate(274.5,7) rotate(270) translate(0,3)" font-family="sans-serif" font-size="10px" fill="#000" opacity="1">6</text><text text-anchor="end" transform="translate(324.5,7) rotate(270) translate(0,3)" font-family="sans-serif" font-size="10px" fill="#000" opacity="1">7</text><text text-anchor="end" transform="translate(374.5,7) rotate(270) translate(0,3)" font-family="sans-serif" font-size="10px" fill="#000" opacity="1">8</text><text text-anchor="end" transform="translate(424.5,7) rotate(270) translate(0,3)" font-family="sans-serif" font-size="10px" fill="#000" opacity="1">9</text><text text-anchor="end" transform="translate(474.5,7) rotate(270) translate(0,3)" font-family="sans-serif" font-size="10px" fill="#000" opacity="1">10</text><text text-anchor="end" transform="translate(524.5,7) rotate(270) translate(0,3)" font-family="sans-serif" font-size="10px" fill="#000" opacity="1">11</text><text text-anchor="end" transform="translate(574.5,7) rotate(270) translate(0,3)" font-family="sans-serif" font-size="10px" fill="#000" opacity="1">12</text></g><g class="mark-rule role-axis-domain" pointer-events="none"><line transform="translate(0,0)" x2="600" y2="0" stroke="#888" stroke-width="1" opacity="1"/></g><g class="mark-text role-axis-title" pointer-events="none"><text text-anchor="middle" transform="translate(300,31.123046875)" font-family="sans-serif" font-size="11px" font-weight="bold" fill="#000" opacity="1">Month</text></g></g><path class="foreground" aria-hidden="true" d="" pointer-events="none" display="none"/></g></g><g class="mark-group role-axis" role="graphics-symbol" aria-roledescription="axis" aria-label="Y-axis titled 'Average Value' for a linear scale with values from 0.0 to 1.0"><g transform="translate(0.5,0.5)"><path class="background" aria-hidden="true" d="M0,0h0v0h0Z" pointer-events="none"/><g><g class="mark-rule role-axis-tick" pointer-events="none"><line transform="translate(0,400)" x2="-5" y2="0" stroke="#888" stroke-width="1" opacity="1"/><line transform="translate(0,360)" x2="-5" y2="0" stroke="#888" stroke-width="1" opacity="1"/><line transform="translate(0,320)" x2="-5" y2="0" stroke="#888" stroke-width="1" opacity="1"/><line transform="translate(0,280)" x2="-5" y2="0" stroke="#888" stroke-width="1" opacity="1"/><line transform="translate(0,240)" x2="-5" y2="0" stroke="#888" stroke-width="1" opacity="1"/><line transform="translate(0,200)" x2="-5" y2="0" stroke="#888" stroke-width="1" opacity="1"/><line transform="translate(0,160)" x2="-5" y2="0" stroke="#888" stroke-width="1" opacity="1"/><line transform="translate(0,120)" x2="-5" y2="0" stroke="#888" stroke-width="1" opacity="1"/><line transform="translate(0,80)" x2="-5" y2="0" stroke="#888" stroke-width="1" opacity="1"/><line transform="translate(0,40)" x2="-5" y2="0" stroke="#888" stroke-width="1" opacity="1"/><line transform="translate(0,0)" x2="-5" y2="0" stroke="#888" stroke-width="1" opacity="1"/></g><g class="mark-text role-axis-label" pointer-events="none"><text text-anchor="end" transform="translate(-7,403)" font-family="sans-serif" font-size="10px" fill="#000" opacity="1">0.0</text><text text-anchor="end" transform="translate(-7,363)" font-family="sans-serif" font-size="10px" fill="#000" opacity="1">0.1</text><text text-anchor="end" transform="translate(-7,323)" font-family="sans-serif" font-size="10px" fill="#000" opacity="1">0.2</text><text text-anchor="end" transform="translate(-7,283)" font-family="sans-serif" font-size="10px" fill="#000" opacity="1">0.3</text><text text-anchor="end" transform="translate(-7,243)" font-family="sans-serif" font-size="10px" fill="#000" opacity="1">0.4</text><text text-anchor="end" transform="translate(-7,203)" font-family="sans-serif" font-size="10px" fill="#000" opacity="1">0.5</text><text text-anchor="end" transform="translate(-7,163)" font-family="sans-serif" font-size="10px" fill="#000" opacity="1">0.6</text><text text-anchor="end" transform="translate(-7,123.00000000000001)" font-family="sans-serif" font-size="10px" fill="#000" opacity="1">0.7</text><text text-anchor="end" transform="translate(-7,82.99999999999999)" font-family="sans-serif" font-size="10px" fill="#000" opacity="1">0.8</text><text text-anchor="end" transform="translate(-7,42.99999999999999)" font-family="sans-serif" font-size="10px" fill="#000" opacity="1">0.9</text><text text-anchor="end" transform="translate(-7,3)" font-family="sans-serif" font-size="10px" fill="#000" opacity="1">1.0</text></g><g class="mark-rule role-axis-domain" pointer-events="none"><line transform="translate(0,400)" x2="0" y2="-400" stroke="#888" stroke-width="1" opacity="1"/></g><g class="mark-text role-axis-title" pointer-events="none"><text text-anchor="middle" transform="translate(-24.9013671875,200) rotate(-90) translate(0,-2)" font-family="sans-serif" font-size="11px" font-weight="bold" fill="#000" opacity="1">Average Value</text></g></g><path class="foreground" aria-hidden="true" d="" pointer-events="none" display="none"/></g></g><g class="mark-rect role-mark marks" role="graphics-object" aria-roledescription="rect mark container"><path aria-label="Month: 1; Average Value: 0.114917754684; Category: PM25" role="graphics-symbol" aria-roledescription="bar" d="M2.5,299.13062249357284h45v45.967101873645106h-45Z" fill="#54a24b"/><path aria-label="Month: 2; Average Value: 0.116975219478; Category: PM25" role="graphics-symbol" aria-roledescription="bar" d="M52.5,304.2979700037119h45v46.79008779109887h-45Z" fill="#54a24b"/><path aria-label="Month: 3; Average Value: 0.131346242358; Category: PM25" role="graphics-symbol" aria-roledescription="bar" d="M102.5,305.8552643094477h45v52.538496943076325h-45Z" fill="#54a24b"/><path aria-label="Month: 4; Average Value: 0.100947708747; Category: PM25" role="graphics-symbol" aria-roledescription="bar" d="M152.5,317.37094219763867h45v40.379083498732996h-45Z" fill="#54a24b"/><path aria-label="Month: 5; Average Value: 0.101068007206; Category: PM25" role="graphics-symbol" aria-roledescription="bar" d="M202.5,316.84553343312933h45v40.42720288230936h-45Z" fill="#54a24b"/><path aria-label="Month: 6; Average Value: 0.0819219220216; Category: PM25" role="graphics-symbol" aria-roledescription="bar" d="M252.5,322.27089225966495h45v32.76876880865581h-45Z" fill="#54a24b"/><path aria-label="Month: 7; Average Value: 0.0792696966512; Category: PM25" role="graphics-symbol" aria-roledescription="bar" d="M302.5,326.3294682103404h45v31.7078786604863h-45Z" fill="#54a24b"/><path aria-label="Month: 8; Average Value: 0.0710920483744; Category: PM25" role="graphics-symbol" aria-roledescription="bar" d="M352.5,329.58840619806506h45v28.436819349765017h-45Z" fill="#54a24b"/><path aria-label="Month: 9; Average Value: 0.0591281878441; Category: PM25" role="graphics-symbol" aria-roledescription="bar" d="M402.5,344.3757574453743h45v23.651275137624964h-45Z" fill="#54a24b"/><path aria-label="Month: 10; Average Value: 0.0831550059835; Category: PM25" role="graphics-symbol" aria-roledescription="bar" d="M452.5,325.0388820973766h45v33.262002393415685h-45Z" fill="#54a24b"/><path aria-label="Month: 11; Average Value: 0.11455574815; Category: PM25" role="graphics-symbol" aria-roledescription="bar" d="M502.5,306.07526766057845h45v45.82229926011519h-45Z" fill="#54a24b"/><path aria-label="Month: 12; Average Value: 0.110752325763; Category: PM25" role="graphics-symbol" aria-roledescription="bar" d="M552.5,309.87729972887917h45v44.300930305040026h-45Z" fill="#54a24b"/><path aria-label="Month: 1; Average Value: 0.0428013811103; Category: PM10" role="graphics-symbol" aria-roledescription="bar" d="M2.5,282.010070049438h45v17.12055244413483h-45Z" fill="#72b7b2"/><path aria-label="Month: 2; Average Value: 0.0373245916724; Category: PM10" role="graphics-symbol" aria-roledescription="bar" d="M52.5,289.36813333474475h45v14.929836668967141h-45Z" fill="#72b7b2"/><path aria-label="Month: 3; Average Value: 0.0559945664102; Category: PM10" role="graphics-symbol" aria-roledescription="bar" d="M102.5,283.45743774538664h45v22.397826564061063h-45Z" fill="#72b7b2"/><path aria-label="Month: 4; Average Value: 0.0496740587953; Category: PM10" role="graphics-symbol" aria-roledescription="bar" d="M152.5,297.5013186795323h45v19.86962351810638h-45Z" fill="#72b7b2"/><path aria-label="Month: 5; Average Value: 0.0387535034741; Category: PM10" role="graphics-symbol" aria-roledescription="bar" d="M202.5,301.3441320434711h45v15.501401389658213h-45Z" fill="#72b7b2"/><path aria-label="Month: 6; Average Value: 0.0268553865865; Category: PM10" role="graphics-symbol" aria-roledescription="bar" d="M252.5,311.5287376250745h45v10.742154634590463h-45Z" fill="#72b7b2"/><path aria-label="Month: 7; Average Value: 0.022733310026; Category: PM10" role="graphics-symbol" aria-roledescription="bar" d="M302.5,317.2361441999334h45v9.093324010407002h-45Z" fill="#72b7b2"/><path aria-label="Month: 8; Average Value: 0.0230605268426; Category: PM10" role="graphics-symbol" aria-roledescription="bar" d="M352.5,320.3641954610189h45v9.224210737046178h-45Z" fill="#72b7b2"/><path aria-label="Month: 9; Average Value: 0.0217946166326; Category: PM10" role="graphics-symbol" aria-roledescription="bar" d="M402.5,335.65791079233793h45v8.71784665303636h-45Z" fill="#72b7b2"/><path aria-label="Month: 10; Average Value: 0.0303211102177; Category: PM10" role="graphics-symbol" aria-roledescription="bar" d="M452.5,312.91043801028337h45v12.128444087093214h-45Z" fill="#72b7b2"/><path aria-label="Month: 11; Average Value: 0.0372938760986; Category: PM10" role="graphics-symbol" aria-roledescription="bar" d="M502.5,291.157717221126h45v14.917550439452441h-45Z" fill="#72b7b2"/><path aria-label="Month: 12; Average Value: 0.0400451496561; Category: PM10" role="graphics-symbol" aria-roledescription="bar" d="M552.5,293.85923986643127h45v16.0180598624479h-45Z" fill="#72b7b2"/><path aria-label="Month: 1; Average Value: 0.196690262946; Category: O3" role="graphics-symbol" aria-roledescription="bar" d="M2.5,203.33396487114067h45v78.67610517829735h-45Z" fill="#e45756"/><path aria-label="Month: 2; Average Value: 0.257482760307; Category: O3" role="graphics-symbol" aria-roledescription="bar" d="M52.5,186.37502921189056h45v102.99310412285419h-45Z" fill="#e45756"/><path aria-label="Month: 3; Average Value: 0.304938653356; Category: O3" role="graphics-symbol" aria-roledescription="bar" d="M102.5,161.4819764031596h45v121.97546134222705h-45Z" fill="#e45756"/><path aria-label="Month: 4; Average Value: 0.349476967553; Category: O3" role="graphics-symbol" aria-roledescription="bar" d="M152.5,157.71053165834473h45v139.79078702118755h-45Z" fill="#e45756"/><path aria-label="Month: 5; Average Value: 0.370249505394; Category: O3" role="graphics-symbol" aria-roledescription="bar" d="M202.5,153.24432988573474h45v148.09980215773638h-45Z" fill="#e45756"/><path aria-label="Month: 6; Average Value: 0.332487569489; Category: O3" role="graphics-symbol" aria-roledescription="bar" d="M252.5,178.53370982963588h45v132.9950277954386h-45Z" fill="#e45756"/><path aria-label="Month: 7; Average Value: 0.264900442844; Category: O3" role="graphics-symbol" aria-roledescription="bar" d="M302.5,211.27596706218782h45v105.96017713774557h-45Z" fill="#e45756"/><path aria-label="Month: 8; Average Value: 0.229897777873; Category: O3" role="graphics-symbol" aria-roledescription="bar" d="M352.5,228.4050843116753h45v91.95911114934358h-45Z" fill="#e45756"/><path aria-label="Month: 9; Average Value: 0.282573431052; Category: O3" role="graphics-symbol" aria-roledescription="bar" d="M402.5,222.62853837158508h45v113.02937242075285h-45Z" fill="#e45756"/><path aria-label="Month: 10; Average Value: 0.269735023008; Category: O3" role="graphics-symbol" aria-roledescription="bar" d="M452.5,205.01642880717762h45v107.89400920310575h-45Z" fill="#e45756"/><path aria-label="Month: 11; Average Value: 0.23146125756; Category: O3" role="graphics-symbol" aria-roledescription="bar" d="M502.5,198.5732141970475h45v92.58450302407851h-45Z" fill="#e45756"/><path aria-label="Month: 12; Average Value: 0.190577133328; Category: O3" role="graphics-symbol" aria-roledescription="bar" d="M552.5,217.62838653515936h45v76.2308533312719h-45Z" fill="#e45756"/><path aria-label="Month: 1; Average Value: 0.205357522328; Category: CO" role="graphics-symbol" aria-roledescription="bar" d="M2.5,50.94993464283228h45v82.14300893122774h-45Z" fill="#4c78a8"/><path aria-label="Month: 2; Average Value: 0.195605119518; Category: CO" role="graphics-symbol" aria-roledescription="bar" d="M52.5,46.347396120888185h45v78.24204780726518h-45Z" fill="#4c78a8"/><path aria-label="Month: 3; Average Value: 0.186620765863; Category: CO" role="graphics-symbol" aria-roledescription="bar" d="M102.5,29.35145619826396h45v74.64830634536104h-45Z" fill="#4c78a8"/><path aria-label="Month: 4; Average Value: 0.149844720497; Category: CO" role="graphics-symbol" aria-roledescription="bar" d="M152.5,52.155386081675246h45v59.93788819875779h-45Z" fill="#4c78a8"/><path aria-label="Month: 5; Average Value: 0.154043777115; Category: CO" role="graphics-symbol" aria-roledescription="bar" d="M202.5,50.50543714920268h45v61.61751084612237h-45Z" fill="#4c78a8"/><path aria-label="Month: 6; Average Value: 0.154960429495; Category: CO" role="graphics-symbol" aria-roledescription="bar" d="M252.5,79.80411442111541h45v61.984171797836396h-45Z" fill="#4c78a8"/><path aria-label="Month: 7; Average Value: 0.167194890196; Category: CO" role="graphics-symbol" aria-roledescription="bar" d="M302.5,109.09975465032349h45v66.87795607851709h-45Z" fill="#4c78a8"/><path aria-label="Month: 8; Average Value: 0.167305695707; Category: CO" role="graphics-symbol" aria-roledescription="bar" d="M352.5,131.23919260729747h45v66.92227828272709h-45Z" fill="#4c78a8"/><path aria-label="Month: 9; Average Value: 0.149094090864; Category: CO" role="graphics-symbol" aria-roledescription="bar" d="M402.5,128.77014661699997h45v59.63763634571086h-45Z" fill="#4c78a8"/><path aria-label="Month: 10; Average Value: 0.172309496643; Category: CO" role="graphics-symbol" aria-roledescription="bar" d="M452.5,86.78137687543202h45v68.923798657319h-45Z" fill="#4c78a8"/><path aria-label="Month: 11; Average Value: 0.205794636695; Category: CO" role="graphics-symbol" aria-roledescription="bar" d="M502.5,48.42379251131197h45v82.31785467810312h-45Z" fill="#4c78a8"/><path aria-label="Month: 12; Average Value: 0.201600760156; Category: CO" role="graphics-symbol" aria-roledescription="bar" d="M552.5,66.19419803516328h45v80.64030406246397h-45Z" fill="#4c78a8"/><path aria-label="Month: 1; Average Value: 0.137255689082; Category: SO2" role="graphics-symbol" aria-roledescription="bar" d="M2.5,345.09772436721795h45v54.90227563278205h-45Z" fill="#eeca3b"/><path aria-label="Month: 2; Average Value: 0.122279855513; Category: SO2" role="graphics-symbol" aria-roledescription="bar" d="M52.5,351.08805779481077h45v48.911942205189234h-45Z" fill="#eeca3b"/><path aria-label="Month: 3; Average Value: 0.104015596869; Category: SO2" role="graphics-symbol" aria-roledescription="bar" d="M102.5,358.39376125252403h45v41.60623874747597h-45Z" fill="#eeca3b"/><path aria-label="Month: 4; Average Value: 0.105624935759; Category: SO2" role="graphics-symbol" aria-roledescription="bar" d="M152.5,357.75002569637167h45v42.249974303628335h-45Z" fill="#eeca3b"/><path aria-label="Month: 5; Average Value: 0.106818159211; Category: SO2" role="graphics-symbol" aria-roledescription="bar" d="M202.5,357.2727363154387h45v42.72726368456131h-45Z" fill="#eeca3b"/><path aria-label="Month: 6; Average Value: 0.112400847329; Category: SO2" role="graphics-symbol" aria-roledescription="bar" d="M252.5,355.03966106832075h45v44.960338931679246h-45Z" fill="#eeca3b"/><path aria-label="Month: 7; Average Value: 0.104906632823; Category: SO2" role="graphics-symbol" aria-roledescription="bar" d="M302.5,358.0373468708267h45v41.962653129173304h-45Z" fill="#eeca3b"/><path aria-label="Month: 8; Average Value: 0.10493693613; Category: SO2" role="graphics-symbol" aria-roledescription="bar" d="M352.5,358.0252255478301h45v41.974774452169925h-45Z" fill="#eeca3b"/><path aria-label="Month: 9; Average Value: 0.0799324185425; Category: SO2" role="graphics-symbol" aria-roledescription="bar" d="M402.5,368.02703258299925h45v31.972967417000746h-45Z" fill="#eeca3b"/><path aria-label="Month: 10; Average Value: 0.104247788773; Category: SO2" role="graphics-symbol" aria-roledescription="bar" d="M452.5,358.30088449079227h45v41.69911550920773h-45Z" fill="#eeca3b"/><path aria-label="Month: 11; Average Value: 0.120256082698; Category: SO2" role="graphics-symbol" aria-roledescription="bar" d="M502.5,351.89756692069363h45v48.102433079306365h-45Z" fill="#eeca3b"/><path aria-label="Month: 12; Average Value: 0.114554424915; Category: SO2" role="graphics-symbol" aria-roledescription="bar" d="M552.5,354.1782300339192h45v45.82176996608081h-45Z" fill="#eeca3b"/><path aria-label="Month: 1; Average Value: 0.175602553243; Category: NO2" role="graphics-symbol" aria-roledescription="bar" d="M2.5,133.09294357406003h45v70.24102129708064h-45Z" fill="#f58518"/><path aria-label="Month: 2; Average Value: 0.154463963209; Category: NO2" role="graphics-symbol" aria-roledescription="bar" d="M52.5,124.58944392815337h45v61.78558528373719h-45Z" fill="#f58518"/><path aria-label="Month: 3; Average Value: 0.143705534649; Category: NO2" role="graphics-symbol" aria-roledescription="bar" d="M102.5,103.999762543625h45v57.482213859534596h-45Z" fill="#f58518"/><path aria-label="Month: 4; Average Value: 0.114043143445; Category: NO2" role="graphics-symbol" aria-roledescription="bar" d="M152.5,112.09327428043304h45v45.6172573779117h-45Z" fill="#f58518"/><path aria-label="Month: 5; Average Value: 0.102803454726; Category: NO2" role="graphics-symbol" aria-roledescription="bar" d="M202.5,112.12294799532505h45v41.121381890409694h-45Z" fill="#f58518"/><path aria-label="Month: 6; Average Value: 0.0918635590267; Category: NO2" role="graphics-symbol" aria-roledescription="bar" d="M252.5,141.7882862189518h45v36.74542361068407h-45Z" fill="#f58518"/><path aria-label="Month: 7; Average Value: 0.0882456408334; Category: NO2" role="graphics-symbol" aria-roledescription="bar" d="M302.5,175.97771072884058h45v35.29825633334724h-45Z" fill="#f58518"/><path aria-label="Month: 8; Average Value: 0.0756090335541; Category: NO2" role="graphics-symbol" aria-roledescription="bar" d="M352.5,198.16147089002456h45v30.243613421650736h-45Z" fill="#f58518"/><path aria-label="Month: 9; Average Value: 0.0855518885222; Category: NO2" role="graphics-symbol" aria-roledescription="bar" d="M402.5,188.40778296271083h45v34.220755408874254h-45Z" fill="#f58518"/><path aria-label="Month: 10; Average Value: 0.123278133186; Category: NO2" role="graphics-symbol" aria-roledescription="bar" d="M452.5,155.705175532751h45v49.311253274426605h-45Z" fill="#f58518"/><path aria-label="Month: 11; Average Value: 0.169578917519; Category: NO2" role="graphics-symbol" aria-roledescription="bar" d="M502.5,130.7416471894151h45v67.8315670076324h-45Z" fill="#f58518"/><path aria-label="Month: 12; Average Value: 0.176984711094; Category: NO2" role="graphics-symbol" aria-roledescription="bar" d="M552.5,146.83450209762725h45v70.79388443753211h-45Z" fill="#f58518"/></g><g class="mark-group role-legend" role="graphics-symbol" aria-roledescription="legend" aria-label="Symbol legend titled 'Category' for fill color with 6 values: CO, NO2, O3, PM10, PM25, SO2"><g transform="translate(618,0)"><path class="background" aria-hidden="true" d="M0,0h48v92h-48Z" pointer-events="none"/><g><g class="mark-group role-legend-entry"><g transform="translate(0,16)"><path class="background" aria-hidden="true" d="M0,0h0v0h0Z" pointer-events="none"/><g><g class="mark-group role-scope" role="graphics-object" aria-roledescription="group mark container"><g transform="translate(0,0)"><path class="background" aria-hidden="true" d="M0,0h42.123046875v11h-42.123046875Z" pointer-events="none" opacity="1"/><g><g class="mark-symbol role-legend-symbol" pointer-events="none"><path transform="translate(6,6)" d="M-5,-5h10v10h-10Z" fill="#4c78a8" stroke-width="1.5" opacity="1"/></g><g class="mark-text role-legend-label" pointer-events="none"><text text-anchor="start" transform="translate(16,9)" font-family="sans-serif" font-size="10px" fill="#000" opacity="1">CO</text></g></g><path class="foreground" aria-hidden="true" d="" pointer-events="none" display="none"/></g><g transform="translate(0,13)"><path class="background" aria-hidden="true" d="M0,0h42.123046875v11h-42.123046875Z" pointer-events="none" opacity="1"/><g><g class="mark-symbol role-legend-symbol" pointer-events="none"><path transform="translate(6,6)" d="M-5,-5h10v10h-10Z" fill="#f58518" stroke-width="1.5" opacity="1"/></g><g class="mark-text role-legend-label" pointer-events="none"><text text-anchor="start" transform="translate(16,9)" font-family="sans-serif" font-size="10px" fill="#000" opacity="1">NO2</text></g></g><path class="foreground" aria-hidden="true" d="" pointer-events="none" display="none"/></g><g transform="translate(0,26)"><path class="background" aria-hidden="true" d="M0,0h42.123046875v11h-42.123046875Z" pointer-events="none" opacity="1"/><g><g class="mark-symbol role-legend-symbol" pointer-events="none"><path transform="translate(6,6)" d="M-5,-5h10v10h-10Z" fill="#e45756" stroke-width="1.5" opacity="1"/></g><g class="mark-text role-legend-label" pointer-events="none"><text text-anchor="start" transform="translate(16,9)" font-family="sans-serif" font-size="10px" fill="#000" opacity="1">O3</text></g></g><path class="foreground" aria-hidden="true" d="" pointer-events="none" display="none"/></g><g transform="translate(0,39)"><path class="background" aria-hidden="true" d="M0,0h42.123046875v11h-42.123046875Z" pointer-events="none" opacity="1"/><g><g class="mark-symbol role-legend-symbol" pointer-events="none"><path transform="translate(6,6)" d="M-5,-5h10v10h-10Z" fill="#72b7b2" stroke-width="1.5" opacity="1"/></g><g class="mark-text role-legend-label" pointer-events="none"><text text-anchor="start" transform="translate(16,9)" font-family="sans-serif" font-size="10px" fill="#000" opacity="1">PM10</text></g></g><path class="foreground" aria-hidden="true" d="" pointer-events="none" display="none"/></g><g transform="translate(0,52)"><path class="background" aria-hidden="true" d="M0,0h42.123046875v11h-42.123046875Z" pointer-events="none" opacity="1"/><g><g class="mark-symbol role-legend-symbol" pointer-events="none"><path transform="translate(6,6)" d="M-5,-5h10v10h-10Z" fill="#54a24b" stroke-width="1.5" opacity="1"/></g><g class="mark-text role-legend-label" pointer-events="none"><text text-anchor="start" transform="translate(16,9)" font-family="sans-serif" font-size="10px" fill="#000" opacity="1">PM25</text></g></g><path class="foreground" aria-hidden="true" d="" pointer-events="none" display="none"/></g><g transform="translate(0,65)"><path class="background" aria-hidden="true" d="M0,0h42.123046875v11h-42.123046875Z" pointer-events="none" opacity="1"/><g><g class="mark-symbol role-legend-symbol" pointer-events="none"><path transform="translate(6,6)" d="M-5,-5h10v10h-10Z" fill="#eeca3b" stroke-width="1.5" opacity="1"/></g><g class="mark-text role-legend-label" pointer-events="none"><text text-anchor="start" transform="translate(16,9)" font-family="sans-serif" font-size="10px" fill="#000" opacity="1">SO2</text></g></g><path class="foreground" aria-hidden="true" d="" pointer-events="none" display="none"/></g></g></g><path class="foreground" aria-hidden="true" d="" pointer-events="none" display="none"/></g></g><g class="mark-text role-legend-title" pointer-events="none"><text text-anchor="start" transform="translate(0,9)" font-family="sans-serif" font-size="11px" font-weight="bold" fill="#000" opacity="1">Category</text></g></g><path class="foreground" aria-hidden="true" d="" pointer-events="none" display="none"/></g></g><g class="mark-group role-title"><g transform="translate(300,-22)"><path class="background" aria-hidden="true" d="M0,0h0v0h0Z" pointer-events="none"/><g><g class="mark-text role-title-text" role="graphics-symbol" aria-roledescription="title" aria-label="Title text 'Monthly Average of Air Quality Indicators'" pointer-events="none"><text text-anchor="middle" transform="translate(0,10)" font-family="sans-serif" font-size="13px" font-weight="bold" fill="#000" opacity="1">Monthly Average of Air Quality Indicators</text></g></g><path class="foreground" aria-hidden="true" d="" pointer-events="none" display="none"/></g></g></g><path class="foreground" aria-hidden="true" d="" display="none"/></g></g></g></svg>